<?xml version="1.0" encoding="utf-8"?>
<!-- Generator: Adobe Illustrator 26.3.1, SVG Export Plug-In . SVG Version: 6.00 Build 0)  -->
<svg version="1.1" id="Capa_1" xmlns="http://www.w3.org/2000/svg" xmlns:xlink="http://www.w3.org/1999/xlink" x="0px" y="0px"
	 viewBox="0 0 221.3 26.5" style="enable-background:new 0 0 221.3 26.5;" xml:space="preserve">
<style type="text/css">
	.st0{fill:#FF7E27;}
</style>
<g>
	<g>
		<g>
			<path class="st0" d="M25.3,9L13.1,25.3L1,9C0.7,8.7,0,8.8,0,9.2v17c0,0.2,0.2,0.4,0.5,0.4h12.6h0.1h12.6c0.3,0,0.5-0.2,0.5-0.4
				v-17C26.3,8.8,25.6,8.7,25.3,9z"/>
		</g>
		<g>
			<ellipse transform="matrix(0.9487 -0.3162 0.3162 0.9487 -1.5955 4.5245)" class="st0" cx="13.1" cy="7.2" rx="7.2" ry="7.2"/>
		</g>
	</g>
	<g>
		<g>
			<g>
				<path class="st0" d="M215.5,11.5c0-1.6,1.3-2.9,2.9-2.9c1.6,0,2.9,1.3,2.9,2.9c0,1.6-1.3,2.9-2.9,2.9
					C216.8,14.4,215.5,13.1,215.5,11.5z M216,11.5c0,1.4,1.1,2.5,2.5,2.5c1.4,0,2.5-1.1,2.5-2.5c0-1.3-1.1-2.5-2.5-2.5
					C217,9.1,216,10.2,216,11.5z M217.3,13V10h1.2c0.7,0,1.1,0.3,1.1,1c0,0.5-0.2,0.8-0.7,0.9l0.6,1H219l-0.6-1h-0.7v1H217.3z
					 M217.8,11.6h0.6c0.5,0,0.7-0.2,0.7-0.6c0-0.4-0.2-0.6-0.7-0.6h-0.6V11.6z"/>
			</g>
		</g>
		<g>
			<g>
				<g>
					<path class="st0" d="M61.8,8.7c3.8,0,5.4,2.9,5.4,6.8s-1.5,6.8-5.4,6.8c-3.8,0-5.5-2.9-5.5-6.8S58,8.7,61.8,8.7z M61.8,20.8
						c2.9,0,4-1.9,4-5.4s-1.1-5.4-4-5.4s-4.1,1.9-4.1,5.4S58.9,20.8,61.8,20.8z"/>
				</g>
				<g>
					<path class="st0" d="M73.9,22.1V10.2l-4.5,0V8.8h10.3v1.4h-4.5l0,11.8H73.9z"/>
				</g>
				<g>
					<path class="st0" d="M87.2,22.1V10.2l-4.5,0V8.8h10.3v1.4h-4.5l0,11.8H87.2z"/>
				</g>
				<g>
					<path class="st0" d="M100.8,8.7c3.8,0,5.4,2.9,5.4,6.8s-1.5,6.8-5.4,6.8c-3.8,0-5.5-2.9-5.5-6.8S97,8.7,100.8,8.7z M100.8,20.8
						c2.9,0,4-1.9,4-5.4s-1.1-5.4-4-5.4s-4.1,1.9-4.1,5.4S97.9,20.8,100.8,20.8z"/>
				</g>
				<g>
					<path class="st0" d="M118.1,22.1V8.8h1.5l4.2,11.3l4.2-11.3h1.5l0,13.2H128v-9.6l-3.6,9.6H123l-3.5-9.4l0,9.4H118.1z"/>
				</g>
				<g>
					<path class="st0" d="M133.9,22.1V8.8h7.7v1.4l-6.3,0v4.2h6v1.4l-6,0l0,5h6.4v1.4H133.9z"/>
				</g>
				<g>
					<path class="st0" d="M146.1,22.1V8.8h1.7l7.5,11.4V8.8h1.4l0,13.2h-1.8l-7.2-10.9l-0.2,10.9H146.1z"/>
				</g>
				<g>
					<path class="st0" d="M161.2,22.1V8.8h4.7c3.7,0,5.1,2.9,5.1,6.6c0,3.7-1.4,6.6-5.1,6.6H161.2z M162.4,20.7c0.3,0,1.2,0,3.5,0
						c2.6,0,3.7-1.9,3.7-5.2s-1.1-5.2-3.7-5.2c-2.2,0-3.1,0-3.3,0l0,10.4H162.4z"/>
				</g>
				<g>
					<path class="st0" d="M179.6,8.7c3.8,0,5.4,2.9,5.4,6.8c0,3.9-1.5,6.8-5.4,6.8c-3.8,0-5.5-2.9-5.5-6.8S175.7,8.7,179.6,8.7z
						 M179.6,20.8c2.9,0,4-1.9,4-5.4s-1.1-5.4-4-5.4s-4.1,1.9-4.1,5.4S176.7,20.8,179.6,20.8z"/>
				</g>
				<g>
					<path class="st0" d="M187.8,22.1v-1.4l7.2-10.4h-7.2V8.8h9.2v1l-0.2,0.3l0,0l-7.4,10.5h7.4v1.4H187.8z"/>
				</g>
				<g>
					<path class="st0" d="M199.8,22.1l4.9-13.4h1.5l4.9,13.4h-1.5l-1.5-4l-5.5,0l-1.5,4.1H199.8z M207.7,16.6l-2.2-6l-2.2,6H207.7z"
						/>
				</g>
			</g>
		</g>
	</g>
</g>
</svg>
